<svg xmlns="http://www.w3.org/2000/svg" xmlns:xlink="http://www.w3.org/1999/xlink" id="Layer_1_copy_3" x="0" y="0" version="1.1" viewBox="0 0 24 24" xml:space="preserve" style="enable-background:new 0 0 24 24"><style type="text/css">.st0{fill:#fff}.st1{fill:#68c3dd}.st2{fill:#6ca9e5}.st3{fill:#7090ed}.st4{fill:#7674f6}.st5{fill:#7251f2}.st6{fill:#6348dc}</style><g><g><path d="M12.02,7.25v9.5c2.62,0,4.75-2.13,4.75-4.75C16.77,9.38,14.65,7.25,12.02,7.25z"/><path d="M12.02,16.75v-9.5C9.4,7.25,7.27,9.38,7.27,12C7.27,14.62,9.4,16.75,12.02,16.75z" class="st0"/></g><g><g><path d="M17.63,7.87l4.4-2.54c-1.01-1.51-2.35-2.78-3.91-3.7C16.5,0.68,14.67,0.12,12.8,0v5.08 C14.77,5.3,16.5,6.35,17.63,7.87z" class="st1"/></g><g><path d="M22.8,17.33c0.82-1.65,1.25-3.48,1.25-5.33c0-1.86-0.43-3.68-1.25-5.33l-4.4,2.54 c0.38,0.86,0.59,1.8,0.59,2.79c0,0.99-0.21,1.94-0.59,2.79L22.8,17.33z" class="st2"/></g><g><path d="M12.8,24c1.88-0.12,3.71-0.68,5.33-1.63c1.57-0.92,2.91-2.19,3.91-3.7l-1.35-0.78l-3.05-1.76 c-1.13,1.52-2.86,2.57-4.83,2.79V24z" class="st3"/></g><g><path d="M6.42,16.13l-3.44,1.99l-0.96,0.56c1.01,1.51,2.35,2.78,3.91,3.7c1.62,0.95,3.45,1.51,5.33,1.63v-5.08 C9.28,18.7,7.54,17.65,6.42,16.13z" class="st4"/></g><g><path d="M1.25,6.67C0.43,8.32,0,10.14,0,12c0,1.86,0.43,3.68,1.25,5.33l4.4-2.54c-0.38-0.86-0.59-1.8-0.59-2.79 c0-0.99,0.21-1.94,0.59-2.79L1.25,6.67z" class="st5"/></g><g><path d="M11.25,0C9.37,0.12,7.55,0.68,5.93,1.63c-1.57,0.92-2.9,2.19-3.91,3.7l0.33,0.19l4.08,2.35 c1.13-1.52,2.86-2.57,4.83-2.79V0z" class="st6"/></g></g></g></svg>